# xmcd
#
# Track frame offsets:
#	150
#	9783
#	20934
#	37989
#	52443
#	66518
#	84388
#	99406
#	111346
#	126878
#
# Disc length: 1858 seconds
# Revision: 0
# Processed by: cddbd v1.5.2PL0 Copyright (c) Steve Scherf et al.
# Submitted via: dBpowerAMP V12.0
#
DISCID=8707400a
DTITLE=Steve Gerard and The National Debonaires - Voodoo Workin'
DYEAR=2011
DGENRE=Blues
TTITLE0=Voodoo Workin'
TTITLE1=Michelle
TTITLE2=One Of Thes days
TTITLE3=TV Mama
TTITLE4=Please Stay With Me
TTITLE5=Ain't Gonna Let Her Go
TTITLE6=There Is Something On Your Mind
TTITLE7=My Girl Josephine
TTITLE8=Sweet Little Woman
TTITLE9=My Baby
EXTD=
EXTT0=
EXTT1=
EXTT2=
EXTT3=
EXTT4=
EXTT5=
EXTT6=
EXTT7=
EXTT8=
EXTT9=
PLAYORDER=
